<svg width="472" height="381" viewBox="0 0 472 381" fill="none" xmlns="http://www.w3.org/2000/svg">
<path d="M18.6982 0.000582969H160.382C167.219 0.000248195 173.853 2.32565 179.193 6.59453C184.533 10.8634 188.261 16.8217 189.765 23.49L261.354 340.96C262.135 344.423 262.149 348.015 261.394 351.483C260.64 354.952 259.136 358.214 256.988 361.04C254.839 363.866 252.098 366.188 248.957 367.843C245.816 369.498 242.351 370.446 238.805 370.62L93.1524 377.795C85.3532 378.179 77.6806 375.713 71.5663 370.857C65.4521 366.001 61.314 359.087 59.9241 351.405L19.3118 126.95L16.2904 127.813L8.51773 85.2705L11.6274 84.4935L0.291656 21.8398C-0.194122 19.1562 -0.0817261 16.3984 0.62085 13.7631C1.32346 11.1279 2.59894 8.68007 4.35632 6.59418C6.11369 4.5083 8.30972 2.83572 10.7878 1.69569C13.266 0.555665 15.9651 -0.023728 18.6929 -0.00118218L18.6982 0.000582969Z" fill="#3F3D56"/>
<path d="M141.732 6.8443H158.269C163.018 6.84435 167.625 8.46835 171.324 11.4467C175.023 14.4251 177.592 18.5787 178.605 23.218L247.322 338.098C247.718 339.911 247.718 341.788 247.322 343.601C246.925 345.414 246.142 347.12 245.026 348.602C243.909 350.085 242.486 351.309 240.853 352.191C239.22 353.073 237.416 353.592 235.564 353.713L90.3846 363.226C86.2888 363.495 82.2376 362.246 79.004 359.719C75.7704 357.191 73.5808 353.562 72.8531 349.523L14.2163 24.064C13.8369 21.9575 13.9244 19.7934 14.4728 17.7244C15.0212 15.6555 16.0171 13.7321 17.3902 12.0899C18.7633 10.4477 20.4801 9.12687 22.4196 8.2205C24.359 7.31413 26.4738 6.84435 28.6146 6.8443H44.3031C45.8217 6.84426 47.2979 7.34469 48.5032 8.26814C49.7085 9.19159 50.5757 10.4865 50.9706 11.9525C51.3192 13.2471 52.0851 14.3907 53.1496 15.2061C54.2142 16.0214 55.5179 16.4631 56.859 16.4626H131.34C133.966 16.4625 136.494 15.4719 138.421 13.6887C140.347 11.9056 141.53 9.46125 141.732 6.8443Z" fill="white"/>
<path d="M61.4764 226.972C61.1941 226.982 60.9177 226.89 60.6976 226.713C60.4776 226.536 60.3284 226.286 60.2775 226.008L28.1721 48.8561C28.1416 48.6877 28.1476 48.5147 28.19 48.3489C28.2324 48.1831 28.3101 48.0284 28.4177 47.8954C28.5243 47.7633 28.6588 47.6564 28.8114 47.5823C28.9641 47.5081 29.1312 47.4685 29.3009 47.4662L175.368 45.7413H175.382C175.647 45.7435 175.903 45.8357 176.109 46.0028C176.315 46.1698 176.458 46.4019 176.515 46.6608L214.364 218.063C214.401 218.23 214.401 218.403 214.365 218.571C214.329 218.738 214.257 218.896 214.154 219.033C214.052 219.169 213.922 219.281 213.772 219.361C213.622 219.44 213.456 219.486 213.287 219.495L61.4764 226.972Z" fill="#E6E6E6"/>
<path d="M188.233 238.426C188.366 238.426 188.495 238.471 188.599 238.554C188.703 238.636 188.776 238.752 188.806 238.881L190.174 244.742C190.193 244.825 190.195 244.911 190.177 244.994C190.16 245.078 190.126 245.156 190.075 245.225C190.025 245.293 189.96 245.35 189.886 245.391C189.811 245.433 189.729 245.457 189.644 245.463L112.37 250.954C112.227 250.963 112.085 250.92 111.971 250.833C111.857 250.746 111.779 250.62 111.75 250.479L110.435 243.698C110.419 243.616 110.421 243.531 110.44 243.449C110.46 243.368 110.497 243.291 110.548 243.225C110.599 243.159 110.664 243.104 110.738 243.065C110.813 243.026 110.894 243.003 110.978 242.998L188.197 238.427L188.233 238.426Z" fill="#E6E6E6"/>
<path d="M94.3499 272.725C94.2106 272.736 94.0718 272.698 93.9584 272.616C93.845 272.534 93.7645 272.415 93.7311 272.279L92.0564 265.484C92.0359 265.4 92.0338 265.313 92.0503 265.229C92.0668 265.145 92.1015 265.065 92.1519 264.996C92.2024 264.927 92.2675 264.869 92.3425 264.828C92.4175 264.786 92.5008 264.761 92.5863 264.755L191.27 257.855C191.403 257.844 191.537 257.88 191.647 257.957C191.758 258.033 191.838 258.146 191.875 258.275L193.616 264.147C193.64 264.231 193.646 264.319 193.632 264.406C193.619 264.492 193.586 264.575 193.536 264.647C193.487 264.719 193.422 264.779 193.346 264.823C193.27 264.867 193.186 264.894 193.099 264.901L94.3499 272.725Z" fill="#E6E6E6"/>
<path d="M99.6497 294.507C99.5104 294.518 99.3716 294.48 99.2582 294.398C99.1449 294.316 99.0643 294.197 99.0309 294.061L97.3562 287.266C97.3357 287.182 97.3336 287.096 97.3501 287.011C97.3666 286.927 97.4013 286.848 97.4517 286.778C97.5022 286.709 97.5673 286.651 97.6423 286.61C97.7173 286.568 97.8006 286.543 97.8862 286.537L196.569 279.637C196.703 279.627 196.837 279.662 196.947 279.739C197.058 279.815 197.138 279.928 197.175 280.057L198.915 285.929C198.94 286.013 198.946 286.102 198.932 286.188C198.919 286.275 198.886 286.357 198.836 286.429C198.787 286.501 198.722 286.561 198.646 286.605C198.57 286.649 198.486 286.676 198.398 286.683L99.6497 294.507Z" fill="#E6E6E6"/>
<path d="M270.747 371.191C270.747 376.118 315.855 376.642 371.374 380.112C426.842 383.577 472 376.118 472 371.191C472 366.264 426.632 356.351 371.374 362.27C315.855 368.217 270.747 366.264 270.747 371.191Z" fill="#E6E6E6"/>
<path d="M145.099 331.744C144.959 331.759 144.818 331.722 144.703 331.64C144.587 331.558 144.506 331.438 144.473 331.3L140.932 317.141C140.911 317.059 140.909 316.972 140.925 316.888C140.941 316.804 140.975 316.725 141.024 316.656C141.074 316.586 141.138 316.528 141.212 316.486C141.286 316.444 141.369 316.418 141.454 316.411L202.055 311.315C202.196 311.306 202.337 311.346 202.451 311.43C202.565 311.514 202.646 311.636 202.679 311.774L205.699 325.363C205.717 325.445 205.718 325.529 205.701 325.611C205.684 325.693 205.65 325.77 205.601 325.838C205.551 325.905 205.488 325.961 205.416 326.003C205.343 326.044 205.263 326.069 205.179 326.077L145.099 331.744Z" fill="#8C59FE"/>
<path d="M389.792 274.047C389.029 273.524 388.39 272.84 387.92 272.044C387.45 271.247 387.16 270.357 387.071 269.437C386.983 268.516 387.097 267.588 387.406 266.716C387.715 265.844 388.212 265.051 388.861 264.392L386.407 209.632L398.899 211.033L398.173 264.597C399.209 265.76 399.783 267.262 399.784 268.819C399.786 270.376 399.216 271.88 398.182 273.045C397.149 274.21 395.724 274.955 394.177 275.139C392.631 275.324 391.07 274.934 389.792 274.044L389.792 274.047Z" fill="#A0616A"/>
<path d="M367.002 366.744L359.892 367.994L352.865 341.17L362.181 339.326L367.002 366.744Z" fill="#A0616A"/>
<path d="M347.339 377.004L369.685 373.076L368.167 364.445L354.455 366.855C352.165 367.258 350.129 368.553 348.794 370.457C347.46 372.36 346.936 374.715 347.339 377.005L347.339 377.004Z" fill="#2F2E41"/>
<path d="M386.518 370.302H379.299L375.865 342.463H386.519L386.518 370.302Z" fill="#A0616A"/>
<path d="M365.379 377.005L388.068 377.006L388.068 368.242L374.145 368.241C371.821 368.241 369.591 369.164 367.947 370.808C366.303 372.451 365.379 374.68 365.379 377.005Z" fill="#2F2E41"/>
<path d="M356.4 360.323C356.512 360.324 356.625 360.317 356.736 360.303L365.233 359.605C365.62 359.559 365.994 359.436 366.331 359.241C366.669 359.047 366.964 358.786 367.197 358.475C367.431 358.163 367.599 357.807 367.691 357.429C367.783 357.05 367.797 356.657 367.732 356.273L359.297 314.663L364.596 286.715C364.639 286.487 364.763 286.284 364.945 286.141C365.127 285.998 365.354 285.925 365.585 285.937C365.816 285.948 366.035 286.043 366.202 286.203C366.368 286.363 366.471 286.579 366.492 286.809L374.3 357.823C374.373 358.571 374.734 359.261 375.306 359.749C375.879 360.236 376.618 360.482 377.368 360.435L385.373 360.137C386.075 360.087 386.734 359.782 387.226 359.28C387.718 358.778 388.009 358.113 388.044 357.411L387.405 271.596L345.903 266.41L343.003 311.175L343.015 311.223L353.609 358.128C353.761 358.753 354.119 359.31 354.625 359.708C355.131 360.105 355.756 360.322 356.4 360.323Z" fill="#2F2E41"/>
<path d="M373.718 174.149C365.731 174.149 359.256 167.675 359.256 159.689C359.256 151.704 365.731 145.23 373.718 145.23C381.706 145.23 388.181 151.704 388.181 159.689C388.181 167.675 381.706 174.149 373.718 174.149Z" fill="#A0616A"/>
<path d="M360.091 278.127C362.353 278.14 364.572 277.505 366.484 276.298C373.492 271.92 381.448 273.66 385.567 275.087C385.976 275.23 386.412 275.279 386.842 275.23C387.273 275.181 387.686 275.035 388.053 274.804C388.414 274.577 388.72 274.271 388.947 273.908C389.174 273.546 389.316 273.138 389.362 272.713L396.853 205.821C398.108 194.613 391.355 184.076 380.796 180.766C380.399 180.641 379.996 180.524 379.586 180.413C376.3 179.522 372.859 179.362 369.505 179.944C366.15 180.526 362.964 181.836 360.171 183.782C357.325 185.749 354.946 188.315 353.199 191.301C351.453 194.286 350.382 197.618 350.062 201.062L343.755 268.402C343.712 268.838 343.771 269.278 343.927 269.688C344.083 270.097 344.332 270.464 344.654 270.761C346.866 272.805 353.283 278.126 360.091 278.127Z" fill="#8C59FE"/>
<path d="M382.903 220.166L399.803 218.308C400.284 218.255 400.748 218.099 401.163 217.851C401.578 217.602 401.935 217.267 402.209 216.869C402.483 216.47 402.668 216.017 402.752 215.541C402.835 215.064 402.814 214.576 402.691 214.108L398.389 197.715C398.263 196.486 397.894 195.295 397.304 194.209C396.714 193.124 395.914 192.166 394.952 191.392C393.989 190.617 392.883 190.041 391.697 189.696C390.51 189.352 389.267 189.246 388.039 189.384C386.812 189.523 385.624 189.904 384.544 190.504C383.464 191.104 382.514 191.913 381.749 192.882C380.983 193.852 380.418 194.964 380.085 196.153C379.752 197.342 379.657 198.586 379.808 199.812L379.169 216.693C379.151 217.177 379.237 217.658 379.422 218.106C379.606 218.553 379.885 218.955 380.24 219.284C380.594 219.614 381.015 219.864 381.474 220.016C381.933 220.168 382.42 220.219 382.901 220.167L382.903 220.166Z" fill="#8C59FE"/>
<path d="M343.824 271.702C343.13 271.091 342.578 270.335 342.207 269.488C341.837 268.641 341.657 267.723 341.68 266.799C341.702 265.874 341.928 264.966 342.339 264.139C342.751 263.311 343.34 262.583 344.063 262.007L348.228 207.351L360.469 210.106L353.285 263.333C354.174 264.612 354.562 266.173 354.376 267.719C354.19 269.265 353.443 270.689 352.276 271.721C351.11 272.753 349.605 273.321 348.048 273.317C346.49 273.314 344.988 272.739 343.826 271.702H343.824Z" fill="#A0616A"/>
<path d="M365.162 216.73C365.516 216.4 365.795 215.999 365.98 215.551C366.165 215.104 366.251 214.623 366.232 214.139L365.594 197.258C365.731 196.039 365.627 194.804 365.288 193.624C364.948 192.444 364.379 191.343 363.614 190.383C362.849 189.423 361.902 188.623 360.827 188.029C359.753 187.435 358.572 187.059 357.352 186.921C356.132 186.783 354.896 186.887 353.717 187.227C352.537 187.566 351.435 188.135 350.475 188.9C349.515 189.665 348.715 190.612 348.121 191.686C347.527 192.76 347.15 193.941 347.012 195.161L342.71 211.554C342.587 212.022 342.567 212.511 342.65 212.987C342.733 213.464 342.918 213.916 343.192 214.315C343.466 214.714 343.823 215.048 344.238 215.297C344.653 215.545 345.117 215.701 345.598 215.754L362.498 217.612C362.979 217.665 363.466 217.613 363.925 217.461C364.385 217.308 364.806 217.059 365.16 216.729L365.162 216.73Z" fill="#8C59FE"/>
<path d="M374.579 174.693C374.836 174.693 375.093 174.663 375.344 174.604L375.418 174.587C388.133 172.644 390.944 165.278 391.56 162.203C392.198 159.02 391.472 155.946 389.829 154.753C390.725 151.927 390.581 149.418 389.401 147.298C387.34 143.601 382.876 142.353 382.276 142.198C378.709 139.567 374.441 141.323 373.664 141.679C366.763 139.127 364.125 141.251 363.649 141.726C360.565 142.28 358.685 143.471 358.06 145.267C356.888 148.641 360.595 152.838 360.754 153.015L360.836 153.107L366.359 153.37C366.884 153.395 367.397 153.53 367.865 153.766C368.334 154.002 368.748 154.334 369.08 154.74C369.412 155.146 369.655 155.618 369.793 156.124C369.931 156.63 369.961 157.159 369.881 157.678C369.732 158.347 369.543 159.006 369.316 159.653C368.374 162.6 367.667 165.118 368.578 166.075C368.784 166.26 369.039 166.384 369.312 166.431C369.585 166.478 369.867 166.448 370.123 166.343C370.987 166.112 371.573 166.161 371.865 166.487C372.319 166.993 372.18 168.274 371.475 170.093C371.254 170.668 371.195 171.293 371.303 171.9C371.412 172.507 371.684 173.072 372.091 173.535C372.398 173.897 372.779 174.187 373.208 174.387C373.638 174.587 374.106 174.691 374.58 174.693H374.579Z" fill="#2F2E41"/>
</svg>
